<svg width="350" height="14" viewBox="0 0 350 14" fill="none" xmlns="http://www.w3.org/2000/svg">
<path d="M170.366 7.66683C110.416 6.6432 51.4948 6.82965 10.395 8.89833C7.42092 9.11471 2.7928 7.85917 0.952167 6.50684C-0.879382 5.15612 0.0617492 3.72583 2.66131 3.62254C45.1689 1.48274 107.545 2.02872 170.597 3.96143L170.366 7.66683ZM170.723 1.92664C106.572 -0.135112 43.8769 -0.752305 2.13035 1.11746C0.261293 1.219 0.357421 2.36948 2.46482 2.31336C43.3432 0.258388 106.145 0.681498 170.68 2.6204L170.723 1.92664ZM338.871 13.8419C293.424 11.002 231.361 8.70822 170.366 7.66683L170.597 3.96143C231.982 5.84337 294.007 9.03975 338.964 12.3547C339.888 12.4236 339.974 12.8008 339.947 13.1704C339.917 13.5383 339.773 13.898 338.871 13.8419ZM170.68 2.6204C234.663 4.54256 300.347 7.95514 348.047 11.9215C349.485 12.0394 349.754 11.5469 348.257 11.4248C300.674 7.50666 234.968 3.99216 170.723 1.92664L170.68 2.6204Z" fill="#4356D6"/>
</svg>
