<svg preserveAspectRatio="none" width="100%" height="100%" overflow="visible" style="display: block;" viewBox="0 0 137.335 34.1658" fill="none" xmlns="http://www.w3.org/2000/svg">
<g id="Group">
<path id="Vector" d="M122.004 32.5495L137.334 17.0815L122.004 1.6155C119.849 -0.5385 116.355 -0.5385 114.199 1.6155C112.043 3.7705 112.043 7.26452 114.199 9.42052L121.724 17.0815L114.199 24.7435C112.043 26.8995 112.043 30.3925 114.199 32.5495C116.354 34.7045 119.848 34.7045 122.004 32.5495Z" fill="var(--fill-0, #E2E2FF)"/>
<path id="Vector_2" d="M99.4865 32.5495L114.818 17.0815L99.4865 1.6155C97.3325 -0.5385 93.8365 -0.5385 91.6825 1.6155C89.5265 3.7705 89.5265 7.26452 91.6825 9.42052L99.2075 17.0815L91.6825 24.7435C89.5265 26.8995 89.5265 30.3925 91.6825 32.5495C93.8365 34.7045 97.3325 34.7045 99.4865 32.5495Z" fill="var(--fill-0, #E2E2FF)"/>
<path id="Vector_3" d="M76.9705 32.5495L92.2995 17.0815L76.9705 1.6155C74.8145 -0.5385 71.3215 -0.5385 69.1645 1.6155C67.0105 3.7705 67.0105 7.26452 69.1645 9.42052L76.6905 17.0815L69.1645 24.7435C67.0105 26.8995 67.0105 30.3925 69.1645 32.5495C71.3215 34.7045 74.8145 34.7045 76.9705 32.5495Z" fill="var(--fill-0, #E2E2FF)"/>
<path id="Vector_4" d="M54.4545 32.5495L69.7855 17.0815L54.4545 1.6155C52.2985 -0.5385 48.8055 -0.5385 46.6485 1.6155C44.4945 3.7705 44.4945 7.26452 46.6485 9.42052L54.1745 17.0815L46.6485 24.7435C44.4945 26.8995 44.4945 30.3925 46.6485 32.5495C48.8035 34.7045 52.2975 34.7045 54.4545 32.5495Z" fill="var(--fill-0, #E2E2FF)"/>
<path id="Vector_5" d="M31.9375 32.5495L47.2685 17.0815L31.9375 1.6155C29.7815 -0.5385 26.2885 -0.5385 24.1325 1.6155C21.9775 3.7705 21.9775 7.26452 24.1325 9.42052L31.6585 17.0815L24.1325 24.7435C21.9775 26.8995 21.9775 30.3925 24.1325 32.5495C26.2875 34.7045 29.7815 34.7045 31.9375 32.5495Z" fill="var(--fill-0, #E2E2FF)"/>
<path id="Vector_6" d="M9.42051 32.5495L24.7525 17.0815L9.42051 1.6155C7.26451 -0.5385 3.7715 -0.5385 1.6155 1.6155C-0.5385 3.7705 -0.5385 7.26452 1.6155 9.42052L9.1415 17.0815L1.6155 24.7435C-0.5385 26.8995 -0.5385 30.3925 1.6155 32.5495C3.7715 34.7045 7.26451 34.7045 9.42051 32.5495Z" fill="var(--fill-0, #E2E2FF)"/>
</g>
</svg>
