<svg width="132.23" height="135.07" viewBox="0 0 132.23 135.07" fill="none" xmlns="http://www.w3.org/2000/svg">
  <g transform="translate(14.92, 23.2) rotate(-126.59, 51.19, 44.34) translate(102.39, 0) scale(-1, 1)">
    <path d="M58.54 39.88C60.71 39.76 62.19 41.9 62.73 43.76C63.33 47.06 61.62 50.17 60.57 53.17C54.82 51.5 55.11 43.59 58.54 39.88ZM26.01 51.6C31.32 54.7 29.24 62.04 27.9 66.8C23.41 63.03 21.8 56.23 26.01 51.6ZM0 87.82C5.06 89.99 10.41 87.59 15.02 85.42C20.59 82.47 25.62 78.38 28.95 72.97C34.38 74.63 40.48 75.73 45.87 73.27C53.05 70.39 58.92 64.91 63.06 58.44C71.68 58.42 78.82 52.19 83.55 45.49C89.99 37.47 93.41 27.5 95.27 17.48C97.19 22.48 98.22 27.75 100.14 32.72C100.69 33.02 101.81 33.59 102.38 33.88C102.5 29.12 100.44 24.69 99.51 20.09C97.67 13.57 97.08 6.73 94.9 0.31C92.77 -0.9 92.02 1.75 90.99 3.05C87.13 9.95 82.46 16.37 78.68 23.3C77.73 24.82 78.47 26.44 79.45 27.69C83.9 23.49 87.27 18.36 90.64 13.29C89.31 20.99 87.92 28.94 84.02 35.84C79.42 42.95 73.95 50.19 65.73 53.3C66.82 49.2 68.2 44.37 65.53 40.56C63.75 37.56 59.63 34.6 56.3 37.09C50.24 42.03 49.97 54.22 58.14 57.34C54.29 62.69 49.1 67.25 42.85 69.51C39.01 70.84 34.89 69.93 31.09 69.04C32.92 63.88 34.16 57.92 31.9 52.67C30.61 50.1 27.46 47.39 24.51 49.03C20.14 51.61 18.32 57.44 19.86 62.2C20.74 65.72 23.3 68.42 25.8 70.91C20.53 79.36 11.25 84.7 1.64 86.64C1.22 86.93 0.41 87.53 0 87.82Z" fill="#B2C0FE"/>
  </g>
</svg>
