<svg width="26" height="26" viewBox="0 0 26 26" fill="none" xmlns="http://www.w3.org/2000/svg">
  <path d="M16.49 16.69L16.99 16.2L15.84 15.05L15.35 15.54L16.49 16.69ZM18.64 16L20.71 17.12L21.49 15.7L19.42 14.57L18.64 16ZM21.11 19.36L19.57 20.89L20.72 22.04L22.26 20.51L21.11 19.36ZM18.64 21.38C17.07 21.53 13 21.4 8.6 17.02L7.46 18.17C12.26 22.95 16.83 23.18 18.79 23L18.64 21.38ZM8.6 17.02C4.41 12.85 3.71 9.35 3.63 7.82L2 7.92C2.11 9.83 2.97 13.72 7.46 18.17L8.6 17.02ZM10.09 10.33L10.4 10.02L9.26 8.87L8.95 9.18L10.09 10.33ZM10.65 6.08L9.28 4.26L7.98 5.23L9.35 7.05L10.65 6.08ZM4.69 3.86L2.99 5.55L4.14 6.7L5.84 5.01L4.69 3.86ZM9.52 9.75C8.95 9.18 8.95 9.18 8.95 9.18L8.94 9.18L8.94 9.18C8.89 9.23 8.84 9.29 8.8 9.35C8.74 9.44 8.68 9.55 8.63 9.7C8.49 10.07 8.46 10.47 8.53 10.86C8.68 11.79 9.32 13.03 10.97 14.68L12.12 13.52C10.57 11.99 10.2 11.05 10.14 10.61C10.1 10.4 10.14 10.29 10.15 10.27C10.15 10.26 10.15 10.25 10.15 10.26C10.14 10.28 10.13 10.29 10.11 10.31L10.1 10.32L10.09 10.33L9.52 9.75ZM10.97 14.68C12.63 16.32 13.87 16.96 14.81 17.11C15.29 17.18 15.68 17.12 15.97 17.01C16.14 16.95 16.29 16.86 16.43 16.76L16.48 16.71L16.49 16.7L16.49 16.7L16.49 16.69C16.49 16.69 16.49 16.69 15.92 16.12C15.35 15.54 15.35 15.54 15.35 15.54L15.35 15.54L15.35 15.54L15.36 15.53L15.37 15.52L15.41 15.49C15.42 15.48 15.42 15.48 15.41 15.49C15.38 15.5 15.27 15.53 15.06 15.5C14.61 15.43 13.67 15.06 12.12 13.52L10.97 14.68ZM9.28 4.26C8.18 2.78 6.01 2.55 4.69 3.86L5.84 5.01C6.41 4.44 7.43 4.5 7.98 5.23L9.28 4.26ZM3.63 7.82C3.61 7.45 3.78 7.06 4.14 6.7L2.99 5.55C2.41 6.13 1.95 6.95 2 7.92L3.63 7.82ZM19.57 20.89C19.28 21.19 18.96 21.35 18.64 21.38L18.79 23C19.58 22.93 20.23 22.52 20.72 22.04L19.57 20.89ZM10.4 10.02C11.47 8.96 11.55 7.28 10.65 6.08L9.35 7.06C9.79 7.64 9.72 8.41 9.26 8.87L10.4 10.02ZM20.72 17.12C21.6 17.6 21.74 18.74 21.11 19.36L22.26 20.51C23.71 19.07 23.26 16.66 21.49 15.7L20.72 17.12ZM16.99 16.2C17.4 15.79 18.07 15.69 18.65 16L19.42 14.57C18.25 13.93 16.79 14.11 15.84 15.05L16.99 16.2Z" fill="white"/>
</svg>
